<?xml version="1.0" encoding="UTF-8" standalone="no"?>
<svg
   xmlns:ooo="http://xml.openoffice.org/svg/export"
   xmlns:dc="http://purl.org/dc/elements/1.1/"
   xmlns:cc="http://creativecommons.org/ns#"
   xmlns:rdf="http://www.w3.org/1999/02/22-rdf-syntax-ns#"
   xmlns:svg="http://www.w3.org/2000/svg"
   xmlns="http://www.w3.org/2000/svg"
   xmlns:sodipodi="http://sodipodi.sourceforge.net/DTD/sodipodi-0.dtd"
   xmlns:inkscape="http://www.inkscape.org/namespaces/inkscape"
   inkscape:version="1.1-dev (1:0.92.0+devel+202003221343+10fd40f)"
   sodipodi:docname="logo.svg"
   id="svg318"
   xml:space="preserve"
   stroke-linejoin="round"
   stroke-width="28.222"
   fill-rule="evenodd"
   preserveAspectRatio="xMidYMid"
   viewBox="0 0 14546.469 8116.3282"
   height="81.163284mm"
   width="145.46469mm"
   version="1.2"><metadata
   id="metadata322"><rdf:RDF><cc:Work
       rdf:about=""><dc:format>image/svg+xml</dc:format><dc:type
         rdf:resource="http://purl.org/dc/dcmitype/StillImage" /><dc:title></dc:title></cc:Work></rdf:RDF></metadata><sodipodi:namedview
   fit-margin-bottom="0"
   fit-margin-right="0"
   fit-margin-left="0"
   fit-margin-top="0"
   inkscape:current-layer="svg318"
   inkscape:window-maximized="1"
   inkscape:window-y="0"
   inkscape:window-x="0"
   inkscape:cy="146.73997"
   inkscape:cx="-193.62128"
   inkscape:zoom="0.45302282"
   showgrid="false"
   id="namedview320"
   inkscape:window-height="1040"
   inkscape:window-width="1920"
   inkscape:pageshadow="2"
   inkscape:pageopacity="0"
   guidetolerance="10"
   gridtolerance="10"
   objecttolerance="10"
   borderopacity="1"
   bordercolor="#666666"
   pagecolor="#ffffff" />
 <defs
   id="defs8"
   class="ClipPathGroup">
  <clipPath
   clipPathUnits="userSpaceOnUse"
   id="presentation_clip_path">
   <rect
   id="rect2"
   height="17638"
   width="17638"
   y="0"
   x="0" />
  </clipPath>
  <clipPath
   clipPathUnits="userSpaceOnUse"
   id="presentation_clip_path_shrink">
   <rect
   id="rect5"
   height="17603"
   width="17603"
   y="17"
   x="17" />
  </clipPath>
 <clipPath
   id="clipPath1155"
   clipPathUnits="userSpaceOnUse"><rect
     y="4936.5049"
     x="1560.2537"
     height="8116.3281"
     width="14546.468"
     id="rect1157"
     style="fill:#0000ff;fill-opacity:0;fill-rule:evenodd;stroke-width:415.028" /></clipPath></defs>
 <defs
   id="defs12"
   class="TextShapeIndex">
  <g
   id="g10"
   ooo:id-list="id3 id4 id5 id6 id7 id8 id9 id10 id11 id12 id13 id14 id15 id16 id17 id18 id19 id20 id21 id22 id23 id24 id25 id26 id27 id28 id29 id30 id31 id32 id33 id34 id35 id36 id37 id38 id39"
   ooo:slide="id1" />
 </defs>
 <defs
   id="defs44"
   class="EmbeddedBulletChars">
  <g
   transform="matrix(4.8828125e-4,0,0,-4.8828125e-4,0,0)"
   id="bullet-char-template-57356">
   <path
   id="path14"
   d="M 580,1141 1163,571 580,0 -4,571 Z" />
  </g>
  <g
   transform="matrix(4.8828125e-4,0,0,-4.8828125e-4,0,0)"
   id="bullet-char-template-57354">
   <path
   id="path17"
   d="M 8,1128 H 1137 V 0 H 8 Z" />
  </g>
  <g
   transform="matrix(4.8828125e-4,0,0,-4.8828125e-4,0,0)"
   id="bullet-char-template-10146">
   <path
   id="path20"
   d="M 174,0 602,739 174,1481 1456,739 Z M 1358,739 309,1346 659,739 Z" />
  </g>
  <g
   transform="matrix(4.8828125e-4,0,0,-4.8828125e-4,0,0)"
   id="bullet-char-template-10132">
   <path
   id="path23"
   d="M 2015,739 1276,0 H 717 l 543,543 H 174 v 393 h 1086 l -543,545 h 557 z" />
  </g>
  <g
   transform="matrix(4.8828125e-4,0,0,-4.8828125e-4,0,0)"
   id="bullet-char-template-10007">
   <path
   id="path26"
   d="m 0,-2 c -7,16 -16,29 -25,39 l 381,530 c -94,256 -141,385 -141,387 0,25 13,38 40,38 9,0 21,-2 34,-5 21,4 42,12 65,25 l 27,-13 111,-251 280,301 64,-25 24,25 c 21,-10 41,-24 62,-43 C 886,937 835,863 770,784 769,783 710,716 594,584 L 774,223 c 0,-27 -21,-55 -63,-84 l 16,-20 C 717,90 699,76 672,76 641,76 570,178 457,381 L 164,-76 c -22,-34 -53,-51 -92,-51 -42,0 -63,17 -64,51 -7,9 -10,24 -10,44 0,9 1,19 2,30 z" />
  </g>
  <g
   transform="matrix(4.8828125e-4,0,0,-4.8828125e-4,0,0)"
   id="bullet-char-template-10004">
   <path
   id="path29"
   d="M 285,-33 C 182,-33 111,30 74,156 52,228 41,333 41,471 c 0,78 14,145 41,201 34,71 87,106 158,106 53,0 88,-31 106,-94 l 23,-176 c 8,-64 28,-97 59,-98 l 735,706 c 11,11 33,17 66,17 42,0 63,-15 63,-46 V 965 c 0,-36 -10,-64 -30,-84 L 442,47 C 390,-6 338,-33 285,-33 Z" />
  </g>
  <g
   transform="matrix(4.8828125e-4,0,0,-4.8828125e-4,0,0)"
   id="bullet-char-template-9679">
   <path
   id="path32"
   d="M 813,0 C 632,0 489,54 383,161 276,268 223,411 223,592 c 0,181 53,324 160,431 106,107 249,161 430,161 179,0 323,-54 432,-161 108,-107 162,-251 162,-431 0,-180 -54,-324 -162,-431 C 1136,54 992,0 813,0 Z" />
  </g>
  <g
   transform="matrix(4.8828125e-4,0,0,-4.8828125e-4,0,0)"
   id="bullet-char-template-8226">
   <path
   id="path35"
   d="m 346,457 c -73,0 -137,26 -191,78 -54,51 -81,114 -81,188 0,73 27,136 81,188 54,52 118,78 191,78 73,0 134,-26 185,-79 51,-51 77,-114 77,-187 0,-75 -25,-137 -76,-188 -50,-52 -112,-78 -186,-78 z" />
  </g>
  <g
   transform="matrix(4.8828125e-4,0,0,-4.8828125e-4,0,0)"
   id="bullet-char-template-8211">
   <path
   id="path38"
   d="M -4,459 H 1135 V 606 H -4 Z" />
  </g>
  <g
   transform="matrix(4.8828125e-4,0,0,-4.8828125e-4,0,0)"
   id="bullet-char-template-61548">
   <path
   id="path41"
   d="m 173,740 c 0,163 58,303 173,419 116,115 255,173 419,173 163,0 302,-58 418,-173 116,-116 174,-256 174,-419 0,-163 -58,-303 -174,-418 C 1067,206 928,148 765,148 601,148 462,206 346,322 231,437 173,577 173,740 Z" />
  </g>
 </defs>
 <defs
   id="defs46"
   class="TextEmbeddedBitmaps" />
 <g
   transform="translate(-1560.2537,-4936.5049)"
   id="g51">
  <g
   class="Master_Slide"
   id="id2">
   <g
   class="Background"
   id="bg-id2" />
   <g
   class="BackgroundObjects"
   id="bo-id2" />
  </g>
 </g>
 <g
   transform="translate(-1560.2537,-4936.5049)"
   clip-path="url(#clipPath1155)"
   id="g316"
   class="SlideGroup">
  <g
   id="g314">
   <g
   id="container-id1">
    <g
   clip-path="url(#presentation_clip_path)"
   class="Slide"
   id="id1">
     <g
   id="g310"
   class="Page">
      <g
   id="g56"
   class="com.sun.star.drawing.PolyPolygonShape">
       <g
   id="id3">
        <rect
   id="rect53"
   height="17640"
   width="17640"
   y="0"
   x="0"
   fill="none"
   stroke="none"
   class="BoundingBox" />
       </g>
      </g>
      <g
   id="g63"
   class="com.sun.star.drawing.PolyPolygonShape">
       <g
   id="id4">
        <rect
   id="rect58"
   height="3949"
   width="2801"
   y="7746"
   x="12904"
   fill="none"
   stroke="none"
   class="BoundingBox" />
        <path
   id="path60"
   d="M 14049,11297 V 9732 h 1188 v -396 h -1188 v -880 -314 h 390 1025 v -396 h -820 -927 -242 l -571,143 v 253 379 3173 h 2800 v -397 z"
   stroke="none"
   fill="#0d5740" />
       </g>
      </g>
      <g
   id="g70"
   class="com.sun.star.drawing.PolyPolygonShape">
       <g
   id="id5">
        <rect
   id="rect65"
   height="3593"
   width="1216"
   y="8102"
   x="10929"
   fill="none"
   stroke="none"
   class="BoundingBox" />
        <path
   id="path67"
   d="m 11776,8172 -847,212 v 192 3118 h 1215 V 8102 Z"
   stroke="none"
   fill="#0d5740" />
       </g>
      </g>
      <g
   id="g77"
   class="com.sun.star.drawing.PolyPolygonShape">
       <g
   id="id6">
        <rect
   id="rect72"
   height="3125"
   width="2521"
   y="8570"
   x="7667"
   fill="none"
   stroke="none"
   class="BoundingBox" />
        <path
   id="path74"
   d="m 9803,8666 v 1777 L 8787,8921 7667,9201 9311,11694 h 876 V 8570 Z"
   stroke="none"
   fill="#0d5740" />
       </g>
      </g>
      <g
   id="g84"
   class="com.sun.star.drawing.ClosedBezierShape">
       <g
   id="id7">
        <rect
   id="rect79"
   height="3949"
   width="3017"
   y="7746"
   x="4647"
   fill="none"
   stroke="none"
   class="BoundingBox" />
        <path
   id="path81"
   d="M 7278,11297 H 5792 V 9732 H 6980 V 9336 H 5792 V 8142 H 7205 V 7746 H 4647 v 2713 c 1,22 3,44 3,66 0,24 -2,46 -3,69 v 1100 h 2631 167 218 V 9202 l -385,97 z"
   stroke="none"
   fill="#105740" />
       </g>
      </g>
      <g
   id="g91"
   class="com.sun.star.drawing.ClosedBezierShape">
       <g
   id="id8">
        <rect
   id="rect86"
   height="137"
   width="5"
   y="10458"
   x="4647"
   fill="none"
   stroke="none"
   class="BoundingBox" />
        <path
   id="path88"
   d="m 4647,10458 v 136 c 1,-23 4,-45 4,-69 0,-23 -3,-45 -4,-67 z"
   stroke="none"
   fill="#0d5740" />
       </g>
      </g>
      <g
   id="g98"
   class="com.sun.star.drawing.ClosedBezierShape">
       <g
   id="id9">
        <rect
   id="rect93"
   height="4089"
   width="2925"
   y="7678"
   x="1724"
   fill="none"
   stroke="none"
   class="BoundingBox" />
        <path
   id="path95"
   d="m 3227,9079 c -491,-170 -737,-373 -737,-610 0,-316 220,-475 659,-475 557,0 836,230 836,689 0,71 -12,160 -35,266 l 533,-99 c 0,-780 -435,-1171 -1302,-1171 -422,0 -763,109 -1022,326 -260,216 -389,502 -389,857 0,626 388,1082 1165,1369 538,198 807,428 807,691 0,352 -225,529 -674,529 -561,0 -841,-245 -841,-735 0,-123 21,-269 63,-436 l -552,121 c -10,91 -14,167 -14,229 0,757 488,1136 1466,1136 441,0 795,-113 1061,-340 250,-212 381,-490 397,-832 v -135 C 4615,9853 4142,9393 3227,9079 Z"
   stroke="none"
   fill="#0d5740" />
       </g>
      </g>
      <g
   id="g105"
   class="com.sun.star.drawing.ClosedBezierShape">
       <g
   id="id10">
        <rect
   id="rect100"
   height="2275"
   width="2740"
   y="5213"
   x="12023"
   fill="none"
   stroke="none"
   class="BoundingBox" />
        <path
   id="path102"
   d="m 13021,6902 c 0,-951 125,-1427 374,-1427 248,0 372,476 372,1427 0,56 -1,109 -2,162 l 997,-250 c -24,-1065 -479,-1601 -1367,-1601 -914,0 -1372,564 -1372,1689 0,216 17,411 51,585 l 954,-238 c -5,-108 -7,-223 -7,-347 z"
   stroke="none"
   fill="#e11f1d" />
       </g>
      </g>
      <g
   id="g112"
   class="com.sun.star.drawing.ClosedBezierShape">
       <g
   id="id11">
        <rect
   id="rect107"
   height="663"
   width="651"
   y="7448"
   x="9537"
   fill="none"
   stroke="none"
   class="BoundingBox" />
        <path
   id="path109"
   d="m 9956,7747 c 4,-92 17,-192 39,-299 l -424,88 c -23,112 -34,204 -34,279 0,111 18,208 52,295 l 213,-53 153,-39 28,-7 204,-51 v -213 z"
   stroke="none"
   fill="#e11f1d" />
       </g>
      </g>
      <g
   id="g119"
   class="com.sun.star.drawing.ClosedBezierShape">
       <g
   id="id12">
        <rect
   id="rect114"
   height="2476"
   width="2406"
   y="5264"
   x="9626"
   fill="none"
   stroke="none"
   class="BoundingBox" />
        <path
   id="path116"
   d="m 12031,7453 c 0,-311 -109,-567 -327,-767 -218,-199 -497,-299 -838,-299 -282,0 -554,88 -816,266 l 122,-701 h 1552 l 125,-688 H 9933 l -307,1767 379,92 c 164,-224 352,-336 563,-336 354,0 531,209 531,626 0,121 -10,229 -27,326 l 957,-240 c 1,-15 2,-30 2,-46 z"
   stroke="none"
   fill="#e11f1d" />
       </g>
      </g>
      <g
   id="g126"
   class="com.sun.star.drawing.ClosedBezierShape">
       <g
   id="id13">
        <rect
   id="rect121"
   height="3125"
   width="1599"
   y="5263"
   x="7804"
   fill="none"
   stroke="none"
   class="BoundingBox" />
        <path
   id="path123"
   d="M 9402,8157 V 5264 h -580 c -198,335 -537,527 -1018,575 v 432 c 210,-15 437,-81 681,-199 v 1674 641 l 317,-80 z"
   stroke="none"
   fill="#e11f1d" />
       </g>
      </g>
      <g
   id="g133"
   class="com.sun.star.drawing.ClosedBezierShape">
       <g
   id="id14">
        <rect
   id="rect128"
   height="488"
   width="442"
   y="12384"
   x="15215"
   fill="none"
   stroke="none"
   class="BoundingBox" />
        <path
   id="path130"
   d="m 15656,12384 v 477 h -169 v -75 c -39,56 -89,84 -150,84 -81,0 -122,-40 -122,-121 v -353 c 56,-2 112,-6 168,-12 v 361 c 0,32 9,47 28,47 50,0 76,-54 76,-162 v -234 c 56,-2 112,-6 169,-12 z"
   stroke="none"
   fill="#0d5740" />
       </g>
      </g>
      <g
   id="g140"
   class="com.sun.star.drawing.ClosedBezierShape">
       <g
   id="id15">
        <rect
   id="rect135"
   height="478"
   width="441"
   y="12384"
   x="14398"
   fill="none"
   stroke="none"
   class="BoundingBox" />
        <path
   id="path137"
   d="m 14838,12503 v 358 h -168 v -341 c 0,-35 -10,-52 -29,-52 -21,0 -38,13 -53,41 -14,27 -21,60 -21,97 v 255 h -168 v -466 c 57,0 113,-4 168,-11 v 87 c 42,-58 94,-87 154,-87 78,0 117,40 117,119 z"
   stroke="none"
   fill="#0d5740" />
       </g>
      </g>
      <g
   id="g147"
   class="com.sun.star.drawing.ClosedBezierShape">
       <g
   id="id16">
        <rect
   id="rect142"
   height="489"
   width="496"
   y="12383"
   x="13873"
   fill="none"
   stroke="none"
   class="BoundingBox" />
        <path
   id="path144"
   d="m 14352,12802 16,43 c -41,16 -81,24 -120,24 -58,0 -93,-18 -107,-54 -28,37 -69,56 -122,56 -97,0 -146,-45 -146,-136 0,-69 44,-118 134,-146 83,-26 124,-57 124,-93 0,-47 -23,-71 -72,-71 -54,0 -81,23 -81,69 0,14 4,33 12,57 l -83,-16 c -2,-15 -3,-28 -3,-41 0,-73 67,-111 203,-111 127,0 191,34 191,104 v 282 c 0,29 9,43 28,43 6,0 15,-3 26,-10 z m -222,-87 v -133 c -10,12 -23,22 -36,30 -36,21 -53,55 -53,102 0,62 12,93 36,93 36,0 53,-31 53,-92 z"
   stroke="none"
   fill="#0d5740" />
       </g>
      </g>
      <g
   id="g154"
   class="com.sun.star.drawing.PolyPolygonShape">
       <g
   id="id17">
        <rect
   id="rect149"
   height="466"
   width="436"
   y="12396"
   x="13429"
   fill="none"
   stroke="none"
   class="BoundingBox" />
        <path
   id="path151"
   d="m 13809,12396 h 55 l -156,465 h -118 l -161,-465 h 179 l 99,311 z"
   stroke="none"
   fill="#0d5740" />
       </g>
      </g>
      <g
   id="g161"
   class="com.sun.star.drawing.ClosedBezierShape">
       <g
   id="id18">
        <rect
   id="rect156"
   height="478"
   width="440"
   y="12384"
   x="12671"
   fill="none"
   stroke="none"
   class="BoundingBox" />
        <path
   id="path158"
   d="m 13110,12503 v 358 h -168 v -341 c 0,-35 -10,-52 -29,-52 -20,0 -38,13 -52,41 -15,27 -22,60 -22,97 v 255 h -168 v -466 c 58,0 114,-4 168,-11 v 87 c 42,-58 94,-87 154,-87 78,0 117,40 117,119 z"
   stroke="none"
   fill="#0d5740" />
       </g>
      </g>
      <g
   id="g168"
   class="com.sun.star.drawing.ClosedBezierShape">
       <g
   id="id19">
        <rect
   id="rect163"
   height="491"
   width="424"
   y="12383"
   x="12177"
   fill="none"
   stroke="none"
   class="BoundingBox" />
        <path
   id="path165"
   d="m 12532,12691 68,20 c -7,107 -70,161 -191,161 -154,0 -232,-77 -232,-232 0,-75 21,-136 62,-184 41,-49 94,-73 158,-73 135,0 202,88 202,261 h -246 c 0,122 31,182 94,182 58,0 86,-34 86,-103 0,-9 0,-20 -1,-32 z m -177,-141 -2,42 h 101 c 0,-108 -16,-162 -50,-162 -29,0 -46,40 -49,120 z"
   stroke="none"
   fill="#0d5740" />
       </g>
      </g>
      <g
   id="g175"
   class="com.sun.star.drawing.ClosedBezierShape">
       <g
   id="id20">
        <rect
   id="rect170"
   height="478"
   width="351"
   y="12384"
   x="11514"
   fill="none"
   stroke="none"
   class="BoundingBox" />
        <path
   id="path172"
   d="m 11848,12565 h -115 c 4,-18 7,-32 10,-40 5,-13 7,-24 7,-34 0,-20 -7,-30 -21,-30 -11,0 -21,13 -31,39 -11,26 -16,53 -16,82 v 279 h -168 v -465 l 33,1 c 38,0 84,-4 135,-13 v 77 c 28,-51 62,-77 101,-77 54,0 81,30 81,90 0,15 -2,33 -7,53 -2,9 -5,21 -9,38 z"
   stroke="none"
   fill="#0d5740" />
       </g>
      </g>
      <g
   id="g182"
   class="com.sun.star.drawing.ClosedBezierShape">
       <g
   id="id21">
        <rect
   id="rect177"
   height="489"
   width="463"
   y="12384"
   x="10981"
   fill="none"
   stroke="none"
   class="BoundingBox" />
        <path
   id="path179"
   d="m 11212,12384 c 154,0 231,82 231,244 0,162 -77,243 -231,243 -154,0 -231,-81 -231,-243 0,-162 77,-244 231,-244 z m 0,42 c -38,0 -56,68 -56,202 0,135 18,202 56,202 37,0 56,-67 56,-202 0,-134 -19,-202 -56,-202 z"
   stroke="none"
   fill="#0d5740" />
       </g>
      </g>
      <g
   id="g189"
   class="com.sun.star.drawing.ClosedBezierShape">
       <g
   id="id22">
        <rect
   id="rect184"
   height="489"
   width="463"
   y="12384"
   x="10471"
   fill="none"
   stroke="none"
   class="BoundingBox" />
        <path
   id="path186"
   d="m 10702,12384 c 154,0 231,82 231,244 0,162 -77,243 -231,243 -154,0 -231,-81 -231,-243 0,-162 77,-244 231,-244 z m -1,42 c -37,0 -55,68 -55,202 0,135 18,202 55,202 38,0 57,-67 57,-202 0,-134 -19,-202 -57,-202 z"
   stroke="none"
   fill="#0d5740" />
       </g>
      </g>
      <g
   id="g196"
   class="com.sun.star.drawing.PolyPolygonShape">
       <g
   id="id23">
        <rect
   id="rect191"
   height="466"
   width="436"
   y="12396"
   x="10023"
   fill="none"
   stroke="none"
   class="BoundingBox" />
        <path
   id="path193"
   d="m 10403,12396 h 55 l -156,465 h -118 l -161,-465 h 180 l 98,311 z"
   stroke="none"
   fill="#0d5740" />
       </g>
      </g>
      <g
   id="g203"
   class="com.sun.star.drawing.PolyPolygonShape">
       <g
   id="id24">
        <rect
   id="rect198"
   height="466"
   width="646"
   y="12396"
   x="9117"
   fill="none"
   stroke="none"
   class="BoundingBox" />
        <path
   id="path200"
   d="m 9708,12396 h 54 l -152,465 h -107 l -63,-236 -63,236 h -107 l -152,-465 h 175 l 83,273 66,-273 h 109 l 71,273 z"
   stroke="none"
   fill="#e11f1d" />
       </g>
      </g>
      <g
   id="g210"
   class="com.sun.star.drawing.ClosedBezierShape">
       <g
   id="id25">
        <rect
   id="rect205"
   height="488"
   width="442"
   y="12384"
   x="8640"
   fill="none"
   stroke="none"
   class="BoundingBox" />
        <path
   id="path207"
   d="m 9081,12384 v 477 h -169 v -75 c -38,56 -88,84 -149,84 -82,0 -123,-40 -123,-121 v -353 c 57,-2 113,-6 168,-12 v 361 c 0,32 10,47 29,47 50,0 75,-54 75,-162 v -234 c 57,-2 114,-6 169,-12 z"
   stroke="none"
   fill="#e11f1d" />
       </g>
      </g>
      <g
   id="g217"
   class="com.sun.star.drawing.ClosedBezierShape">
       <g
   id="id26">
        <rect
   id="rect212"
   height="491"
   width="424"
   y="12383"
   x="8147"
   fill="none"
   stroke="none"
   class="BoundingBox" />
        <path
   id="path214"
   d="m 8502,12691 68,20 c -8,107 -71,161 -190,161 -155,0 -233,-77 -233,-232 0,-75 20,-136 62,-184 42,-49 94,-73 158,-73 135,0 202,88 202,261 h -245 c 0,122 31,182 92,182 58,0 87,-34 87,-103 0,-9 -1,-20 -1,-32 z m -177,-141 -2,42 h 101 c 0,-108 -17,-162 -49,-162 -30,0 -46,40 -50,120 z"
   stroke="none"
   fill="#e11f1d" />
       </g>
      </g>
      <g
   id="g224"
   class="com.sun.star.drawing.ClosedBezierShape">
       <g
   id="id27">
        <rect
   id="rect219"
   height="491"
   width="424"
   y="12383"
   x="7676"
   fill="none"
   stroke="none"
   class="BoundingBox" />
        <path
   id="path221"
   d="m 8031,12691 68,20 c -7,107 -71,161 -190,161 -156,0 -233,-77 -233,-232 0,-75 20,-136 62,-184 41,-49 94,-73 158,-73 135,0 202,88 202,261 h -245 c 0,122 31,182 92,182 58,0 87,-34 87,-103 0,-9 -1,-20 -1,-32 z m -177,-141 -2,42 h 101 c 0,-108 -17,-162 -49,-162 -30,0 -46,40 -50,120 z"
   stroke="none"
   fill="#e11f1d" />
       </g>
      </g>
      <g
   id="g231"
   class="com.sun.star.drawing.ClosedBezierShape">
       <g
   id="id28">
        <rect
   id="rect226"
   height="491"
   width="424"
   y="12383"
   x="6922"
   fill="none"
   stroke="none"
   class="BoundingBox" />
        <path
   id="path228"
   d="m 7277,12691 68,20 c -7,107 -70,161 -190,161 -154,0 -233,-77 -233,-232 0,-75 21,-136 63,-184 41,-49 94,-73 158,-73 134,0 201,88 201,261 h -245 c 0,122 31,182 93,182 57,0 86,-34 86,-103 0,-9 0,-20 -1,-32 z m -177,-141 -1,42 h 100 c 0,-108 -16,-162 -49,-162 -29,0 -46,40 -50,120 z"
   stroke="none"
   fill="#e11f1d" />
       </g>
      </g>
      <g
   id="g238"
   class="com.sun.star.drawing.PolyPolygonShape">
       <g
   id="id29">
        <rect
   id="rect233"
   height="466"
   width="436"
   y="12396"
   x="6474"
   fill="none"
   stroke="none"
   class="BoundingBox" />
        <path
   id="path235"
   d="m 6854,12396 h 55 l -156,465 h -118 l -161,-465 h 179 l 99,311 z"
   stroke="none"
   fill="#e11f1d" />
       </g>
      </g>
      <g
   id="g245"
   class="com.sun.star.drawing.ClosedBezierShape">
       <g
   id="id30">
        <rect
   id="rect240"
   height="640"
   width="170"
   y="12222"
   x="6271"
   fill="none"
   stroke="none"
   class="BoundingBox" />
        <path
   id="path242"
   d="m 6440,12223 v 638 h -169 v -629 c 47,0 103,-3 169,-9 z"
   stroke="none"
   fill="#e11f1d" />
       </g>
      </g>
      <g
   id="g252"
   class="com.sun.star.drawing.ClosedBezierShape">
       <g
   id="id31">
        <rect
   id="rect247"
   height="489"
   width="496"
   y="12383"
   x="5747"
   fill="none"
   stroke="none"
   class="BoundingBox" />
        <path
   id="path249"
   d="m 6226,12802 16,43 c -41,16 -82,24 -121,24 -58,0 -93,-18 -107,-54 -28,37 -68,56 -120,56 -98,0 -147,-45 -147,-136 0,-69 45,-118 134,-146 83,-26 124,-57 124,-93 0,-47 -24,-71 -71,-71 -55,0 -82,23 -82,69 0,14 4,33 13,57 l -84,-16 c -2,-15 -3,-28 -3,-41 0,-73 67,-111 202,-111 127,0 191,34 191,104 v 282 c 0,29 11,43 29,43 6,0 15,-3 26,-10 z m -223,-87 v -133 c -10,12 -22,22 -36,30 -35,21 -52,55 -52,102 0,62 12,93 36,93 35,0 52,-31 52,-92 z"
   stroke="none"
   fill="#e11f1d" />
       </g>
      </g>
      <g
   id="g259"
   class="com.sun.star.drawing.ClosedBezierShape">
       <g
   id="id32">
        <rect
   id="rect254"
   height="641"
   width="441"
   y="12222"
   x="5240"
   fill="none"
   stroke="none"
   class="BoundingBox" />
        <path
   id="path256"
   d="m 5408,12861 h -168 v -629 c 50,0 106,-3 168,-10 v 255 c 37,-62 89,-93 155,-93 78,0 117,35 117,106 v 371 h -168 v -352 c 0,-27 -9,-40 -27,-40 -19,0 -37,17 -53,51 -16,34 -24,71 -24,110 z"
   stroke="none"
   fill="#e11f1d" />
       </g>
      </g>
      <g
   id="g266"
   class="com.sun.star.drawing.ClosedBezierShape">
       <g
   id="id33">
        <rect
   id="rect261"
   height="478"
   width="352"
   y="12384"
   x="4839"
   fill="none"
   stroke="none"
   class="BoundingBox" />
        <path
   id="path263"
   d="m 5173,12565 h -116 c 5,-18 9,-32 12,-40 4,-13 6,-24 6,-34 0,-20 -7,-30 -22,-30 -11,0 -21,13 -31,39 -10,26 -15,53 -15,82 v 279 h -168 v -465 l 33,1 c 39,0 84,-4 135,-13 v 77 c 28,-51 62,-77 102,-77 54,0 81,30 81,90 0,15 -3,33 -8,53 -2,9 -5,21 -9,38 z"
   stroke="none"
   fill="#e11f1d" />
       </g>
      </g>
      <g
   id="g273"
   class="com.sun.star.drawing.ClosedBezierShape">
       <g
   id="id34">
        <rect
   id="rect268"
   height="491"
   width="425"
   y="12383"
   x="4345"
   fill="none"
   stroke="none"
   class="BoundingBox" />
        <path
   id="path270"
   d="m 4701,12691 68,20 c -7,107 -71,161 -190,161 -155,0 -233,-77 -233,-232 0,-75 20,-136 62,-184 42,-49 94,-73 159,-73 134,0 201,88 201,261 h -245 c 0,122 31,182 92,182 58,0 87,-34 87,-103 0,-9 0,-20 -1,-32 z m -177,-141 -2,42 h 101 c 0,-108 -17,-162 -49,-162 -30,0 -46,40 -50,120 z"
   stroke="none"
   fill="#e11f1d" />
       </g>
      </g>
      <g
   id="g280"
   class="com.sun.star.drawing.ClosedBezierShape">
       <g
   id="id35">
        <rect
   id="rect275"
   height="651"
   width="440"
   y="12222"
   x="3838"
   fill="none"
   stroke="none"
   class="BoundingBox" />
        <path
   id="path277"
   d="m 4277,12222 v 639 h -169 v -40 c -28,34 -66,51 -113,51 -105,0 -157,-80 -157,-241 0,-165 55,-248 166,-248 43,0 78,20 104,58 v -209 c 52,0 108,-3 169,-10 z m -219,229 c -28,0 -42,26 -42,78 l -3,98 1,91 c 0,58 16,86 48,86 31,0 47,-28 47,-84 l 2,-115 -4,-77 c -4,-51 -21,-77 -49,-77 z"
   stroke="none"
   fill="#e11f1d" />
       </g>
      </g>
      <g
   id="g287"
   class="com.sun.star.drawing.ClosedBezierShape">
       <g
   id="id36">
        <rect
   id="rect282"
   height="478"
   width="439"
   y="12384"
   x="3328"
   fill="none"
   stroke="none"
   class="BoundingBox" />
        <path
   id="path284"
   d="m 3766,12503 v 358 h -169 v -341 c 0,-35 -9,-52 -29,-52 -19,0 -36,13 -51,41 -14,27 -21,60 -21,97 v 255 h -168 v -466 c 57,0 113,-4 168,-11 v 87 c 41,-58 92,-87 152,-87 79,0 118,40 118,119 z"
   stroke="none"
   fill="#e11f1d" />
       </g>
      </g>
      <g
   id="g294"
   class="com.sun.star.drawing.ClosedBezierShape">
       <g
   id="id37">
        <rect
   id="rect289"
   height="489"
   width="497"
   y="12383"
   x="2801"
   fill="none"
   stroke="none"
   class="BoundingBox" />
        <path
   id="path291"
   d="m 3281,12802 16,43 c -41,16 -81,24 -121,24 -58,0 -94,-18 -107,-54 -28,37 -68,56 -121,56 -98,0 -147,-45 -147,-136 0,-69 45,-118 135,-146 82,-26 123,-57 123,-93 0,-47 -23,-71 -71,-71 -54,0 -82,23 -82,69 0,14 5,33 13,57 l -83,-16 c -2,-15 -3,-28 -3,-41 0,-73 67,-111 201,-111 128,0 193,34 193,104 v 282 c 0,29 9,43 28,43 6,0 14,-3 26,-10 z m -223,-87 v -133 c -11,12 -23,22 -37,30 -34,21 -52,55 -52,102 0,62 12,93 36,93 35,0 53,-31 53,-92 z"
   stroke="none"
   fill="#e11f1d" />
       </g>
      </g>
      <g
   id="g301"
   class="com.sun.star.drawing.ClosedBezierShape">
       <g
   id="id38">
        <rect
   id="rect296"
   height="640"
   width="171"
   y="12222"
   x="2284"
   fill="none"
   stroke="none"
   class="BoundingBox" />
        <path
   id="path298"
   d="m 2454,12223 v 638 h -169 v -629 c 46,0 102,-3 169,-9 z"
   stroke="none"
   fill="#0d5740" />
       </g>
      </g>
      <g
   id="g308"
   class="com.sun.star.drawing.PolyPolygonShape">
       <g
   id="id39">
        <rect
   id="rect303"
   height="631"
   width="523"
   y="12232"
   x="1724"
   fill="none"
   stroke="none"
   class="BoundingBox" />
        <path
   id="path305"
   d="m 1911,12232 h 160 l 175,629 h -183 l -38,-136 h -189 l -41,136 h -71 z m 23,151 -80,279 h 154 z"
   stroke="none"
   fill="#0d5740" />
       </g>
      </g>
     </g>
    </g>
   </g>
  </g>
 </g>
</svg>
